# xmcd CD database file
#
# Track frame offsets:
#	150
#	20278
#	41798
#	61978
#
# Disc length: 1112 seconds
#
# Revision: 0
# Processed by: cddbd v1.5.1PL2 Copyright (c) Steve Scherf et al.
# Submitted via: CDex 1.51
#
DISCID=2c045604
DTITLE=中村雅俊 - 哀しい人
DYEAR=1999
DGENRE=JPop
TTITLE0=哀しい人
TTITLE1=あゝ青春
TTITLE2=哀しい人（オリジナルカラオケ）
TTITLE3=あゝ青春（オリジナルカラオケ）
EXTD=YEAR: 1999
EXTT0=
EXTT1=
EXTT2=
EXTT3=
PLAYORDER=
